<?xml version="1.0" standalone="no"?>
<!DOCTYPE svg PUBLIC "-//W3C//DTD SVG 20010904//EN"
 "http://www.w3.org/TR/2001/REC-SVG-20010904/DTD/svg10.dtd">
<svg version="1.0" xmlns="http://www.w3.org/2000/svg"
 width="928.000000pt" height="928.000000pt" viewBox="0 0 928.000000 928.000000"
 preserveAspectRatio="xMidYMid meet">
<metadata>
Created by potrace 1.11, written by Peter Selinger 2001-2013
</metadata>
<g transform="translate(0.000000,928.000000) scale(0.100000,-0.100000)"
fill="#000000" stroke="none">
<path d="M4603 9265 c-12 -8 -27 -32 -34 -53 -7 -20 -19 -53 -27 -72 -9 -19
-17 -39 -18 -45 -1 -5 -16 -48 -34 -95 -17 -47 -42 -114 -55 -150 -36 -102
-95 -263 -102 -280 -3 -8 -7 -19 -9 -25 -3 -14 -52 -145 -63 -170 -11 -25 -55
-146 -58 -160 -1 -5 -22 -62 -46 -125 -24 -63 -54 -144 -67 -180 -12 -36 -27
-76 -33 -90 -5 -14 -11 -29 -13 -35 -1 -5 -31 -89 -67 -185 -36 -96 -109 -294
-162 -440 -53 -146 -109 -299 -125 -340 -39 -102 -162 -437 -195 -532 -15 -43
-32 -78 -36 -78 -5 0 -9 4 -9 8 0 4 -12 15 -27 25 -16 9 -42 29 -59 44 -17 15
-46 39 -64 53 -19 14 -59 45 -89 70 -31 25 -63 50 -71 57 -8 6 -56 46 -107 87
-51 42 -97 76 -102 76 -5 0 -11 4 -13 9 -2 7 -263 219 -412 336 -22 17 -44 35
-50 40 -6 6 -42 35 -81 65 -38 30 -72 57 -75 60 -3 3 -27 23 -55 45 -67 54
-70 56 -146 117 -36 29 -82 67 -103 83 -21 17 -51 40 -65 52 -14 12 -109 88
-211 169 -102 82 -190 153 -197 159 -6 5 -24 20 -40 32 -15 12 -39 31 -53 42
-126 104 -153 114 -200 74 l-30 -25 0 -3865 c0 -2949 3 -3869 12 -3886 6 -12
11 -37 9 -55 -1 -23 5 -39 23 -57 44 -44 48 -43 333 121 87 51 174 101 193
111 19 11 106 61 193 112 88 50 163 91 168 91 5 0 9 5 9 10 0 6 4 10 9 10 6 0
36 15 68 34 32 18 78 45 103 58 58 33 550 315 570 327 19 12 192 111 280 161
36 20 81 46 100 57 250 145 565 323 571 323 5 0 9 5 9 10 0 6 5 10 10 10 6 0
68 33 138 74 70 41 143 83 162 93 19 11 111 64 203 117 92 53 172 96 177 96 4
0 10 4 12 8 6 15 105 61 114 53 7 -7 654 -379 739 -425 11 -6 22 -13 25 -16 3
-3 23 -14 45 -26 22 -11 96 -53 164 -92 68 -40 127 -72 132 -72 5 0 9 -4 9
-10 0 -5 4 -10 9 -10 5 0 143 -77 307 -171 165 -95 324 -185 354 -202 30 -16
62 -36 70 -43 8 -7 17 -12 20 -12 3 1 24 -11 47 -25 24 -15 45 -27 47 -27 2 0
49 -26 103 -58 54 -32 105 -61 113 -65 8 -4 33 -18 55 -32 22 -13 56 -33 75
-43 19 -10 112 -63 205 -117 94 -54 190 -109 215 -123 25 -14 77 -44 115 -67
39 -22 77 -44 85 -48 8 -4 29 -15 45 -25 17 -10 50 -30 75 -44 25 -14 74 -42
110 -63 136 -79 150 -85 175 -85 15 0 36 11 51 27 22 23 24 33 19 63 -4 19 -9
1781 -11 3914 l-3 3879 -23 23 c-39 39 -72 38 -126 -3 -57 -44 -285 -226 -292
-233 -3 -3 -25 -21 -50 -40 -53 -41 -78 -61 -94 -75 -6 -6 -31 -26 -56 -45
-25 -19 -47 -37 -50 -40 -3 -4 -77 -64 -165 -134 -88 -70 -169 -134 -180 -144
-11 -9 -51 -42 -90 -72 -38 -30 -79 -63 -90 -72 -24 -20 -91 -74 -135 -108
-18 -14 -37 -29 -44 -35 -6 -5 -34 -28 -61 -50 -28 -22 -57 -45 -65 -52 -8 -7
-80 -64 -160 -128 -80 -63 -152 -121 -160 -128 -8 -6 -75 -61 -150 -120 -190
-153 -212 -170 -226 -185 -17 -16 -19 -13 -83 168 -29 80 -56 154 -61 165 -17
42 -61 165 -62 175 0 3 -5 14 -11 25 -6 11 -12 25 -13 30 -2 9 -60 169 -89
245 -31 83 -40 105 -41 110 0 3 -4 12 -7 20 -4 8 -38 101 -76 205 -38 105 -76
208 -84 230 -27 72 -30 80 -32 90 -3 10 -52 145 -105 285 -62 163 -92 245 -94
255 -2 6 -6 17 -9 25 -12 29 -158 425 -162 440 -2 8 -16 47 -31 85 -14 39 -37
99 -50 135 -12 36 -37 103 -55 150 -17 47 -36 100 -42 118 -23 70 -85 101
-134 67z m61 -336 c2 -8 8 -25 13 -39 6 -14 31 -81 56 -150 25 -69 75 -206
112 -305 36 -99 86 -234 110 -300 24 -66 56 -151 70 -190 54 -145 108 -291
118 -325 6 -19 15 -38 20 -41 5 -3 7 -8 6 -10 -4 -4 9 -40 91 -264 26 -71 73
-200 104 -285 31 -85 63 -171 71 -190 7 -19 32 -87 55 -150 23 -63 45 -124 50
-135 4 -11 27 -72 50 -135 50 -139 79 -217 91 -248 14 -35 13 -36 -48 -86 -32
-25 -64 -51 -72 -58 -8 -7 -96 -77 -195 -157 -100 -80 -186 -150 -193 -155 -6
-6 -26 -22 -44 -36 -18 -14 -49 -38 -69 -55 -21 -16 -52 -42 -71 -57 -48 -38
-74 -59 -224 -180 l-132 -106 -54 40 c-30 23 -72 56 -94 75 -22 19 -44 37 -50
41 -5 4 -49 39 -96 77 -47 39 -101 81 -119 95 -18 14 -38 30 -44 35 -6 6 -49
41 -96 78 -47 37 -92 73 -100 80 -8 7 -53 43 -100 80 -47 38 -103 83 -124 100
-21 18 -48 39 -59 47 -11 8 -38 31 -60 51 l-39 35 71 195 c40 106 75 201 78
209 3 8 7 20 8 25 2 6 13 35 25 65 12 30 24 62 26 70 2 8 33 94 69 190 37 96
71 191 77 210 6 19 13 40 16 45 4 6 7 15 8 20 3 14 62 175 74 200 5 11 36 97
70 190 34 94 65 179 70 190 5 11 29 76 54 145 54 150 253 693 308 840 22 58
44 121 50 140 5 19 15 41 20 48 6 6 7 12 2 12 -4 0 -3 5 4 12 7 7 12 21 12 32
0 14 3 17 11 9 6 -6 12 -17 13 -24z m-3220 -1306 c39 -32 78 -63 86 -70 8 -6
49 -39 90 -72 84 -68 78 -63 140 -111 25 -19 47 -38 50 -41 3 -3 46 -38 95
-78 50 -39 97 -77 105 -84 8 -6 35 -28 60 -47 25 -19 47 -37 50 -40 3 -3 28
-23 55 -45 28 -22 59 -47 70 -57 11 -9 72 -57 135 -108 63 -50 122 -96 130
-103 8 -7 35 -28 60 -47 25 -19 47 -37 50 -41 3 -3 131 -106 285 -229 154
-123 285 -229 291 -234 6 -6 52 -42 102 -81 50 -38 94 -77 97 -85 4 -13 -106
-335 -156 -455 -7 -16 -13 -32 -13 -35 -1 -3 -7 -18 -13 -35 -7 -16 -42 -113
-78 -215 -37 -102 -70 -194 -75 -205 -5 -11 -34 -90 -64 -175 -31 -85 -60
-163 -66 -172 -5 -10 -10 -22 -10 -27 0 -5 -5 -22 -12 -38 -6 -15 -12 -32 -13
-38 -2 -5 -28 -77 -59 -159 -31 -82 -56 -155 -56 -162 0 -8 -4 -14 -8 -14 -5
0 -9 -6 -9 -12 0 -12 -122 -353 -144 -403 -5 -11 -24 -63 -43 -115 -173 -475
-288 -788 -293 -800 -3 -8 -7 -19 -9 -25 -2 -9 -147 -401 -161 -435 -3 -8 -7
-19 -9 -25 -7 -27 -50 -141 -54 -145 -3 -3 -6 -12 -8 -20 -3 -12 -280 -773
-299 -820 -4 -8 -7 -17 -8 -20 -1 -3 -4 -12 -8 -20 -3 -8 -49 -133 -101 -277
-53 -145 -100 -273 -105 -285 -12 -29 -24 -61 -26 -68 -5 -20 -29 -87 -34 -95
-3 -5 -6 -12 -6 -15 -1 -19 -91 -240 -98 -240 -4 0 -5 5 -2 10 3 6 6 1621 6
3590 0 1969 3 3580 6 3580 3 0 38 -26 77 -57z m6456 -50 c2 -1541 -1 -6967 -3
-6969 -3 -3 -111 287 -173 461 -9 28 -26 69 -36 92 -10 24 -18 46 -18 49 0 7
-75 213 -167 459 -25 66 -46 125 -47 130 -2 6 -8 23 -14 38 -7 16 -12 33 -12
38 0 5 -4 17 -9 27 -12 24 -24 55 -56 142 -14 41 -33 91 -40 110 -8 19 -64
172 -125 340 -61 168 -133 364 -161 436 -27 72 -49 137 -49 145 0 8 -4 19 -8
24 -5 6 -19 39 -31 75 -21 61 -26 76 -51 133 -5 12 -22 60 -39 107 -16 47 -68
191 -116 320 -48 129 -102 278 -121 330 -19 52 -38 104 -43 115 -9 19 -109
294 -177 485 -19 52 -39 104 -44 115 -6 11 -14 34 -19 50 -5 17 -23 68 -41
115 -36 97 -69 188 -100 275 -11 33 -24 67 -27 75 -3 8 -7 17 -8 20 -1 3 -6
16 -12 30 -5 14 -52 140 -103 280 -51 140 -97 266 -103 280 -5 14 -11 30 -13
35 -1 6 -13 38 -26 73 l-23 63 26 22 c15 12 41 33 58 47 47 37 194 155 242
194 9 7 94 76 190 152 95 77 183 147 194 156 11 9 61 49 110 88 121 96 155
123 169 135 6 6 42 35 81 65 38 30 79 62 90 72 11 9 63 51 115 92 52 42 113
91 134 109 22 18 54 43 73 56 18 13 33 28 33 33 0 4 6 8 14 8 8 0 16 3 18 8 2
4 25 25 53 47 27 22 90 73 140 113 49 41 97 79 105 85 54 41 116 93 118 99 2
5 10 8 18 8 8 0 14 5 14 10 0 6 5 10 10 10 6 0 10 -43 10 -107z m-2131 -1650
c7 -21 18 -54 26 -73 8 -19 49 -129 91 -245 42 -115 90 -246 106 -290 16 -44
33 -91 38 -105 4 -14 37 -104 73 -200 36 -96 93 -251 127 -345 34 -93 75 -206
92 -250 16 -44 38 -102 48 -130 10 -27 44 -120 75 -205 31 -85 63 -171 70
-190 8 -19 39 -105 70 -190 95 -261 125 -343 145 -395 10 -27 46 -126 80 -220
34 -93 65 -179 70 -190 5 -11 27 -72 50 -135 23 -63 45 -124 50 -135 11 -25
121 -326 124 -340 2 -5 6 -17 9 -25 10 -23 95 -254 137 -370 81 -224 229 -626
241 -655 6 -16 13 -34 14 -40 3 -10 65 -180 90 -245 31 -83 40 -105 41 -110 0
-3 4 -12 7 -20 9 -21 108 -293 111 -305 2 -5 8 -21 13 -35 6 -14 9 -27 7 -29
-3 -3 -92 64 -104 80 -3 3 -23 19 -45 35 -22 16 -49 37 -60 46 -11 10 -119 97
-240 194 -121 96 -229 183 -240 192 -11 9 -85 69 -165 132 -80 63 -150 119
-156 125 -23 20 -60 51 -96 77 -20 15 -42 34 -50 41 -7 7 -42 35 -78 62 -36
28 -70 55 -76 60 -24 22 -61 52 -104 85 -25 19 -52 41 -60 47 -8 7 -80 65
-160 129 -80 64 -146 120 -148 125 -2 5 -8 9 -14 9 -5 0 -35 21 -66 48 -31 26
-63 52 -70 57 -7 6 -18 15 -25 20 -7 6 -50 41 -97 78 -109 87 -106 84 -170
137 -30 25 -59 48 -65 53 -18 13 -199 158 -220 175 -11 10 -77 62 -145 117
-69 55 -132 105 -140 112 -8 6 -53 42 -100 80 -136 108 -130 92 -58 149 35 26
65 51 68 54 3 3 59 48 125 100 66 52 122 97 125 100 3 3 199 160 435 350 237
189 435 349 441 355 7 5 37 29 67 53 57 45 72 77 57 117 -4 12 -52 57 -107
100 -54 43 -100 81 -103 84 -3 4 -21 18 -42 33 -20 15 -42 33 -50 40 -7 7 -31
26 -53 42 -22 17 -47 37 -55 45 -8 9 -23 21 -31 26 -13 8 -274 217 -332 266
-7 5 -55 43 -107 85 -52 42 -104 83 -115 92 -11 10 -49 40 -85 67 -36 28 -69
55 -75 61 -5 5 -32 28 -60 49 -27 22 -52 42 -55 45 -3 3 -29 23 -57 45 -29 21
-53 40 -53 42 0 2 55 46 580 468 124 99 234 188 245 197 52 44 161 128 165
128 4 0 12 -17 19 -37z m-1984 -178 c55 -44 105 -84 111 -90 6 -5 26 -21 44
-35 18 -14 42 -33 54 -43 11 -10 36 -31 55 -45 155 -123 375 -300 420 -339
l33 -30 -33 -24 c-19 -13 -73 -55 -121 -94 -47 -38 -115 -92 -150 -120 -34
-27 -69 -55 -76 -62 -7 -7 -41 -34 -75 -60 -34 -26 -67 -52 -73 -58 -15 -13
-32 -27 -134 -108 -47 -38 -92 -74 -100 -80 -8 -7 -49 -39 -90 -72 -41 -33
-82 -65 -90 -72 -8 -7 -43 -34 -76 -61 -34 -27 -68 -54 -75 -60 -8 -7 -36 -30
-64 -52 -27 -22 -57 -46 -65 -53 -8 -8 -47 -39 -86 -70 -44 -34 -73 -65 -76
-80 -5 -28 7 -68 26 -82 7 -5 30 -24 52 -42 21 -18 172 -139 334 -269 162
-129 311 -249 331 -265 19 -16 100 -81 180 -144 79 -63 154 -124 165 -135 12
-11 27 -20 33 -20 6 0 11 -3 11 -7 0 -5 56 -53 125 -107 l126 -100 -23 -21
c-13 -11 -43 -36 -68 -55 -71 -55 -82 -64 -99 -80 -9 -8 -50 -41 -92 -72 -41
-32 -83 -65 -94 -75 -11 -10 -51 -43 -90 -73 -38 -30 -72 -57 -75 -60 -3 -3
-36 -30 -75 -60 -38 -30 -81 -65 -95 -76 -14 -12 -54 -45 -90 -73 -36 -29 -73
-58 -82 -66 -10 -8 -51 -41 -92 -73 -41 -33 -80 -65 -88 -71 -21 -17 -90 -73
-132 -106 -22 -16 -44 -35 -50 -41 -6 -6 -33 -27 -61 -48 -27 -21 -52 -41 -55
-45 -3 -4 -34 -29 -70 -56 -36 -27 -71 -55 -78 -62 -8 -7 -30 -26 -50 -41 -21
-15 -39 -29 -42 -32 -3 -3 -142 -116 -310 -250 -168 -134 -364 -292 -436 -350
-73 -58 -149 -118 -170 -135 -20 -16 -65 -52 -99 -80 -34 -27 -77 -61 -95 -75
-18 -14 -44 -35 -56 -47 -13 -13 -27 -23 -33 -23 -5 0 -11 -3 -13 -8 -1 -4
-25 -25 -53 -47 -27 -22 -58 -47 -68 -57 -23 -23 -40 -24 -28 0 5 9 21 49 35
87 14 39 31 84 37 100 15 36 14 33 24 70 4 17 10 35 14 40 3 6 6 12 7 15 0 3
4 12 7 20 11 25 237 640 262 710 12 36 43 121 69 190 26 69 75 204 110 300 35
96 83 225 106 285 23 61 43 117 45 125 2 8 23 65 46 125 22 61 46 126 52 145
6 19 14 37 17 40 3 3 6 10 7 15 1 9 104 294 120 335 4 8 7 17 8 20 1 3 4 12 8
20 3 8 24 67 47 130 23 63 50 138 60 165 11 28 33 88 50 135 17 47 35 94 39
105 5 11 39 103 76 205 37 102 91 253 122 335 57 156 64 177 65 185 0 3 5 14
11 25 6 11 12 25 13 30 2 10 133 368 157 430 6 17 11 33 9 38 -1 4 3 7 8 7 6
0 10 6 10 14 0 11 240 675 283 781 6 17 12 32 12 35 1 4 11 31 54 143 l11 28
72 -58 c40 -32 118 -94 173 -138z m940 -755 c44 -36 87 -70 95 -77 168 -134
238 -190 250 -200 8 -7 56 -44 105 -84 102 -81 158 -127 185 -150 10 -8 31
-24 46 -35 14 -10 34 -26 43 -35 9 -8 34 -29 56 -45 22 -16 45 -34 50 -40 6
-7 30 -27 55 -46 25 -18 54 -41 65 -50 21 -18 100 -81 125 -101 8 -7 29 -23
46 -37 17 -14 45 -36 62 -49 l31 -23 -67 -54 c-37 -29 -74 -60 -82 -67 -8 -7
-35 -28 -60 -47 -25 -19 -47 -37 -50 -40 -3 -3 -97 -79 -210 -170 -113 -90
-209 -168 -215 -172 -5 -4 -62 -50 -125 -101 -63 -51 -127 -101 -141 -112 -15
-11 -93 -74 -175 -140 -82 -66 -156 -126 -166 -133 -18 -13 -47 5 -173 110
-32 26 -100 81 -135 108 -77 60 -116 93 -127 108 -7 9 -13 12 -13 6 0 -5 -4
-4 -8 2 -4 5 -108 91 -232 189 -124 99 -233 187 -242 195 -10 8 -100 80 -202
160 -101 80 -185 150 -185 155 0 6 53 52 117 102 64 51 131 104 147 118 17 13
35 28 40 32 45 35 405 325 422 339 11 11 31 26 43 34 12 8 28 20 34 25 6 6 70
58 141 115 72 57 135 109 142 115 6 5 24 20 40 32 15 12 62 48 103 81 41 33
77 57 80 53 3 -4 41 -36 85 -71z m15 -2317 c8 -7 76 -60 150 -119 74 -59 137
-111 140 -114 3 -3 14 -13 26 -21 11 -8 41 -30 65 -51 78 -64 175 -142 209
-168 19 -14 61 -48 94 -75 34 -28 106 -86 161 -129 55 -44 105 -84 110 -91 6
-6 17 -16 26 -21 9 -5 36 -25 60 -46 24 -20 139 -112 254 -204 116 -92 226
-180 245 -196 19 -16 40 -32 45 -36 19 -14 320 -257 331 -267 7 -5 35 -28 64
-50 29 -22 71 -57 94 -77 22 -21 46 -38 53 -38 6 0 13 -4 15 -9 2 -5 66 -59
143 -121 77 -62 149 -119 160 -128 11 -10 43 -35 70 -57 28 -21 52 -42 55 -45
3 -3 21 -17 42 -32 20 -15 42 -33 50 -41 7 -7 26 -22 42 -35 16 -12 24 -22 19
-22 -5 0 -13 4 -18 9 -6 5 -30 20 -55 34 -25 13 -259 147 -520 297 -535 307
-528 303 -572 328 -18 11 -112 64 -208 119 -96 56 -197 113 -225 128 -27 16
-110 64 -184 107 -74 43 -135 78 -136 78 -2 0 -64 36 -140 80 -76 44 -140 80
-142 80 -3 0 -17 8 -31 19 -15 10 -54 33 -87 51 -33 18 -153 86 -266 151 -149
85 -214 117 -235 115 -16 -1 -57 -19 -92 -39 -35 -20 -66 -37 -69 -37 -4 0
-14 -6 -22 -14 -9 -7 -45 -29 -81 -49 -36 -19 -88 -48 -116 -65 -27 -16 -72
-42 -100 -57 -59 -34 -85 -49 -249 -142 -70 -40 -131 -73 -135 -73 -5 0 -10
-3 -12 -8 -1 -4 -86 -55 -188 -112 -102 -57 -186 -108 -188 -112 -2 -5 -8 -8
-13 -8 -5 0 -69 -34 -142 -76 -73 -42 -151 -88 -175 -101 -23 -13 -93 -53
-154 -89 -61 -35 -112 -64 -114 -64 -3 0 -21 -11 -42 -23 -20 -13 -57 -35 -82
-49 -25 -14 -211 -120 -414 -237 -202 -116 -371 -211 -374 -211 -3 0 -13 -6
-21 -14 -9 -7 -43 -28 -76 -46 -33 -17 -66 -37 -73 -42 -7 -6 -14 -9 -16 -7
-2 2 95 83 216 179 121 96 227 182 236 190 9 9 46 38 82 65 36 27 70 54 75 60
6 6 224 182 485 391 261 208 477 381 480 384 3 3 37 30 75 60 39 30 72 57 75
60 3 3 37 30 75 60 39 30 72 57 75 60 24 25 111 90 121 90 7 0 10 3 6 6 -3 4
22 27 56 52 34 25 64 48 67 51 3 4 61 51 130 106 69 55 134 107 145 117 26 21
107 86 120 96 22 15 111 87 130 104 34 29 239 193 264 211 24 16 26 15 70 -21
25 -20 53 -42 61 -49z"/>
</g>
</svg>
